<svg width="53" height="16" viewBox="0 0 53 16" fill="none" xmlns="http://www.w3.org/2000/svg">
    <path fill-rule="evenodd" clip-rule="evenodd" d="M31.531 0.335963H28.7115V14.9001H32.1522V6.01371C33.0483 3.83088 34.3982 3.04363 35.581 3.04363C36.0955 3.02419 36.6094 3.09691 37.0982 3.25833L37.7195 0.28825C37.1826 0.0819222 36.61 -0.0154016 36.035 0.00197734C34.458 0.00197734 32.9407 1.01586 31.8655 2.92435H31.758L31.531 0.335963ZM23.3712 6.24035C23.3712 3.99788 22.4155 2.65001 20.3845 2.65001C18.6403 2.65001 17.1708 3.93824 16.896 6.24035H23.3712ZM13.5748 7.64786C13.5748 2.92436 16.896 0.00198446 20.3248 0.00198446C24.2673 0.00198446 26.346 2.86471 26.346 6.92025C26.346 7.58822 26.2982 8.20848 26.1788 8.6021H16.896C17.1708 11.1905 18.8673 12.6576 21.2328 12.6576C22.4633 12.6576 23.5385 12.264 24.6018 11.5841L25.7845 13.7192C24.3748 14.6258 22.6305 15.2937 20.7788 15.2937C16.7288 15.2937 13.5748 12.4906 13.5748 7.64786ZM0.791687 13.0992L7.72086 3.04382H1.58018V0.336157H11.9978V2.13729L5.12839 12.2046H12.2248V14.9599H0.791687V13.0992ZM52.7947 7.64877C52.7947 11.8717 49.366 15.295 45.1364 15.295C40.9068 15.295 37.4781 11.8717 37.4781 7.64877C37.4781 3.42587 40.9068 0.00254257 45.1364 0.00254257C49.366 0.00254257 52.7947 3.42587 52.7947 7.64877ZM43.4404 12.783C43.3913 10.2047 44.655 8.06273 46.1387 6.74211C43.9909 7.70479 42.5136 9.83043 42.0749 11.8726C42.0313 12.0754 41.7721 12.1412 41.6632 11.966C39.9865 9.26988 40.8534 6.13119 43.7179 5.02836C43.8335 4.98806 43.9527 4.94695 44.0742 4.90501C45.6614 4.35715 47.6583 3.66792 47.6583 2.80412C49.2039 4.19634 49.3309 7.79291 48.3207 9.30114C47.6496 10.3031 46.6625 10.9576 45.6053 11.6586C45.0141 12.0506 44.401 12.4571 43.8089 12.9471C43.6638 13.0673 43.444 12.9741 43.4404 12.783Z" fill="#005A6C"/>
</svg>
